# xmcd CD database file
#
# Track frame offsets:
#	150
#	17536
#	37902
#
# Disc length: 711 seconds
#
# Revision: 0
# Processed by: cddbd v1.5.1PL0 Copyright (c) Steve Scherf et al.
# Submitted via: CDex 1.51
#
DISCID=1402c503
DTITLE=Time A - shattering blow
DYEAR=2004
DGENRE=New Age
TTITLE0=01 the blood you spill
TTITLE1=02 tropic of capricorn
TTITLE2=03 shattering blow
EXTD=YEAR: 2004
EXTT0=
EXTT1=
EXTT2=
PLAYORDER=
